<?xml version="1.0" encoding="iso-8859-1"?>
<!-- Uploaded to: SVG Repo, www.svgrepo.com, Generator: SVG Repo Mixer Tools -->
<!DOCTYPE svg PUBLIC "-//W3C//DTD SVG 1.1//EN" "http://www.w3.org/Graphics/SVG/1.1/DTD/svg11.dtd">
<svg fill="#000000" height="800px" width="800px" version="1.1" id="Capa_1" xmlns="http://www.w3.org/2000/svg" xmlns:xlink="http://www.w3.org/1999/xlink" 
	 viewBox="0 0 487.379 487.379" xml:space="preserve">
<g>
	<path d="M393.722,438.868L371.37,271.219h0.622c6.564,0,11.885-5.321,11.885-11.885V17.668c0-4.176-2.183-8.03-5.751-10.18
		c-3.569-2.152-7.998-2.279-11.679-0.335c-46.345,24.454-75.357,72.536-75.357,124.952v101.898
		c0,20.551,16.665,37.215,37.218,37.215h2.818l-22.352,167.649c-1.625,12.235,2.103,24.599,10.228,33.886
		c8.142,9.289,19.899,14.625,32.246,14.625c12.346,0,24.104-5.336,32.246-14.625C391.619,463.467,395.347,451.104,393.722,438.868z"
		/>
	<path d="M207.482,0c-9.017,0-16.314,7.297-16.314,16.313v91.128h-16.314V16.313C174.854,7.297,167.557,0,158.54,0
		c-9.017,0-16.313,7.297-16.313,16.313v91.128h-16.314V16.313C125.912,7.297,118.615,0,109.599,0
		c-9.018,0-16.314,7.297-16.314,16.313v91.128v14.913v41.199c0,24.2,19.611,43.811,43.811,43.811h3.616L115,438.74
		c-1.37,12.378,2.596,24.758,10.896,34.047c8.317,9.287,20.186,14.592,32.645,14.592c12.459,0,24.327-5.305,32.645-14.592
		c8.301-9.289,12.267-21.669,10.896-34.047l-25.713-231.375h3.617c24.199,0,43.811-19.611,43.811-43.811v-41.199v-14.913V16.313
		C223.796,7.297,216.499,0,207.482,0z"/>
</g>
</svg>