<?xml version="1.0" encoding="iso-8859-1"?>
<!-- Uploaded to: SVG Repo, www.svgrepo.com, Generator: SVG Repo Mixer Tools -->
<svg version="1.1" id="Layer_1" xmlns="http://www.w3.org/2000/svg" xmlns:xlink="http://www.w3.org/1999/xlink" 
	 viewBox="0 0 512 512" xml:space="preserve">
<g>
	<path style="fill:#A50020;" d="M427.928,262.268l-56.422-120.896c-9.409,2.477-13.599-1.782-25.331,3.694
		c-13.867,6.472-10.539,13.602-24.407,20.074c-13.869,6.472-17.197-0.658-31.066,5.815c-11.733,5.476-11.161,11.422-19.104,17.044
		l56.422,120.896c10.612,22.739,32.617,38.03,57.629,40.044l22.749,1.833l13.207-18.613
		C436.126,311.693,438.54,285.007,427.928,262.268z"/>
	<path style="fill:#A50020;" d="M223.313,181.396c-1.456-0.449-3.018-1.034-4.753-1.844c-14.393-6.716-10.939-14.116-25.331-20.832
		c-14.39-6.715-17.844,0.684-32.233-6.033c-11.277-5.262-11.599-10.944-18.133-16.388L84.072,262.268
		c-5.941,12.729-7.796,26.694-5.734,40.114c1.622,10.552,5.665,20.768,12.057,29.776l13.207,18.613l22.749-1.833
		c25.013-2.015,47.016-17.305,57.629-40.044l58.79-125.97C235.687,181.645,231.317,183.865,223.313,181.396z"/>
</g>
<g>
	<path style="fill:#820018;" d="M223.313,181.396L175.274,284.33c-10.612,22.739-32.617,38.03-57.629,40.044l-22.749,1.833
		L81.69,307.595c-1.203-1.696-2.315-3.437-3.351-5.212c1.622,10.552,5.665,20.768,12.057,29.776l13.207,18.613l22.749-1.833
		c25.013-2.015,47.016-17.305,57.629-40.044l58.79-125.97C235.687,181.645,231.317,183.865,223.313,181.396z"/>
	<path style="fill:#820018;" d="M288.687,181.396l48.039,102.934c10.612,22.739,32.617,38.03,57.629,40.044l22.749,1.833
		l13.207-18.613c1.203-1.696,2.315-3.437,3.351-5.212c-1.622,10.552-5.665,20.768-12.057,29.776l-13.207,18.613l-22.749-1.833
		c-25.013-2.015-47.016-17.305-57.629-40.044l-58.79-125.97C276.313,181.645,280.684,183.865,288.687,181.396z"/>
</g>
<rect x="150.888" y="172.312" transform="matrix(-0.9062 -0.4229 0.4229 -0.9062 223.156 409.2828)" style="fill:#720017;" width="12.181" height="15.15"/>
<rect x="168.675" y="196.395" transform="matrix(-0.9062 -0.4229 0.4229 -0.9062 246.8772 462.711)" style="fill:#C60024;" width="12.181" height="15.15"/>
<rect x="174.366" y="253.351" transform="matrix(-0.9062 -0.4229 0.4229 -0.9062 233.6391 573.685)" style="fill:#720017;" width="12.181" height="15.15"/>
<g>
	
		<rect x="111.719" y="262.007" transform="matrix(-0.9062 -0.4229 0.4229 -0.9062 110.5618 563.6931)" style="fill:#C60024;" width="12.181" height="15.15"/>
	
		<rect x="120.727" y="313.561" transform="matrix(-0.9062 -0.4229 0.4229 -0.9062 105.9322 665.7738)" style="fill:#C60024;" width="12.181" height="15.15"/>
</g>
<rect x="248.43" y="20.771" width="15.15" height="47.164"/>
<rect x="310.847" y="35.515" transform="matrix(-0.9076 -0.4198 0.4198 -0.9076 582.616 246.4069)" width="15.149" height="47.162"/>
<rect x="170.005" y="51.524" transform="matrix(-0.4198 -0.9076 0.9076 -0.4198 221.2155 259.6107)" width="47.162" height="15.15"/>
<path d="M505.592,432.085l-50.982-0.205l-37.484-80.319l10.658-15.02c16.061-22.637,18.748-52.325,7.008-77.477l-52.585-112.676l0,0
	L359.57,97.882l-103.569,48.335L152.432,97.882l-18.901,40.501l0,0L77.208,259.064c-11.738,25.152-9.052,54.84,7.009,77.477
	l10.657,15.019L57.39,431.879l-50.98,0.205L0,445.819l97.297,45.408l6.408-13.735l-32.587-39.205l37.484-80.319l18.356-1.479
	c27.668-2.229,52.146-19.238,63.885-44.391l62.948-134.88l0,0l2.208-4.73l12.569,26.934l0,0l52.587,112.678
	c11.737,25.152,36.217,42.162,63.885,44.391l18.357,1.479l37.484,80.319l-32.587,39.206l6.408,13.735L512,445.821L505.592,432.085z
	 M359.951,134.522c-0.174-0.003-0.353-0.005-0.53-0.007c-0.071-0.001-0.14-0.002-0.212-0.003c-0.226-0.002-0.457,0-0.689,0.001
	c-0.22,0.001-0.443,0.006-0.67,0.011c-0.155,0.004-0.307,0.006-0.465,0.012c-0.179,0.006-0.363,0.016-0.545,0.025
	c-0.139,0.007-0.278,0.013-0.419,0.022c-0.189,0.012-0.381,0.026-0.574,0.041c-0.143,0.011-0.287,0.023-0.432,0.036
	c-0.194,0.018-0.391,0.037-0.589,0.06c-0.151,0.017-0.305,0.035-0.46,0.055c-0.2,0.024-0.4,0.049-0.604,0.079
	c-0.162,0.023-0.326,0.051-0.49,0.076c-0.204,0.032-0.406,0.063-0.614,0.1c-0.194,0.034-0.394,0.076-0.592,0.115
	c-0.32,0.064-0.645,0.132-0.975,0.208c-0.234,0.054-0.467,0.105-0.706,0.166c-0.183,0.045-0.371,0.098-0.557,0.148
	c-0.231,0.062-0.462,0.124-0.698,0.192c-0.19,0.055-0.383,0.115-0.577,0.174c-0.243,0.075-0.488,0.153-0.736,0.234
	c-0.192,0.064-0.386,0.129-0.582,0.197c-0.264,0.092-0.532,0.189-0.803,0.289c-0.188,0.07-0.374,0.138-0.565,0.212
	c-0.306,0.118-0.619,0.246-0.933,0.376c-0.163,0.068-0.323,0.13-0.488,0.201c-0.484,0.206-0.975,0.423-1.478,0.659
	c-1.075,0.501-2.069,1.012-2.995,1.528s-1.78,1.038-2.572,1.563c-0.793,0.525-1.524,1.053-2.201,1.582
	c-3.387,2.642-5.439,5.29-7.219,7.588c-1.354,1.748-2.497,3.223-4.176,4.617c-1.306,1.084-2.936,2.119-5.243,3.196
	c-5.274,2.461-8.112,2.355-12.04,2.203c-4.646-0.178-10.43-0.399-19.026,3.613c-0.503,0.234-0.985,0.472-1.454,0.71
	c-0.158,0.08-0.305,0.161-0.459,0.24c-0.305,0.16-0.608,0.319-0.9,0.48c-0.173,0.095-0.339,0.191-0.507,0.287
	c-0.26,0.148-0.516,0.297-0.765,0.445c-0.166,0.099-0.329,0.199-0.491,0.298c-0.241,0.149-0.477,0.3-0.708,0.449
	c-0.148,0.096-0.298,0.193-0.441,0.289c-0.241,0.162-0.474,0.324-0.704,0.486c-0.12,0.085-0.244,0.17-0.362,0.255
	c-0.304,0.22-0.597,0.44-0.882,0.661c-0.034,0.026-0.071,0.053-0.105,0.079c-0.315,0.245-0.616,0.491-0.908,0.736
	c-0.102,0.086-0.198,0.171-0.297,0.257c-0.189,0.163-0.377,0.325-0.558,0.488c-0.108,0.097-0.213,0.195-0.318,0.292
	c-0.164,0.151-0.324,0.302-0.481,0.452c-0.103,0.099-0.205,0.198-0.305,0.297c-0.153,0.15-0.301,0.3-0.446,0.449
	c-0.093,0.095-0.185,0.19-0.276,0.284c-0.153,0.161-0.301,0.32-0.447,0.479c-0.074,0.081-0.15,0.162-0.223,0.242
	c-0.191,0.211-0.376,0.421-0.556,0.63c-0.023,0.026-0.047,0.053-0.07,0.08c-0.205,0.238-0.402,0.474-0.596,0.708
	c-0.057,0.068-0.11,0.134-0.165,0.202c-0.102,0.125-0.206,0.251-0.306,0.375l-7.703-16.506l86.179-40.219L359.951,134.522z
	 M159.754,118.017l86.179,40.219l-7.787,16.686c-0.061-0.001-0.115,0.002-0.175,0.001c-0.574-0.004-1.132,0.001-1.674,0.014
	c-0.124,0.003-0.243,0.007-0.367,0.01c-0.524,0.015-1.04,0.032-1.539,0.051c-0.258,0.01-0.51,0.019-0.76,0.028
	c-0.748,0.026-1.464,0.045-2.173,0.039c-2.243-0.018-4.415-0.292-7.28-1.363c-0.753-0.282-1.55-0.613-2.415-1.017l0,0
	c-5.535-2.584-7.358-4.936-9.882-8.192c-2.937-3.79-6.592-8.507-15.45-12.641c-0.504-0.235-0.997-0.452-1.483-0.661
	c-0.153-0.065-0.301-0.125-0.451-0.188c-0.338-0.14-0.673-0.276-1.002-0.404c-0.159-0.062-0.316-0.122-0.473-0.181
	c-0.339-0.127-0.674-0.247-1.004-0.362c-0.122-0.042-0.247-0.088-0.369-0.128c-0.439-0.147-0.873-0.286-1.296-0.412
	c-0.095-0.028-0.188-0.053-0.282-0.08c-0.331-0.096-0.659-0.187-0.981-0.271c-0.145-0.037-0.289-0.073-0.433-0.108
	c-0.272-0.067-0.539-0.13-0.805-0.189c-0.142-0.031-0.285-0.064-0.426-0.093c-0.295-0.062-0.586-0.117-0.873-0.17
	c-0.094-0.017-0.19-0.036-0.282-0.053c-0.368-0.064-0.728-0.119-1.084-0.169c-0.122-0.017-0.24-0.03-0.361-0.046
	c-0.242-0.031-0.482-0.061-0.718-0.085c-0.136-0.014-0.272-0.028-0.406-0.04c-0.223-0.021-0.444-0.039-0.663-0.056
	c-0.123-0.009-0.247-0.019-0.369-0.027c-0.283-0.018-0.562-0.033-0.836-0.044c-0.1-0.004-0.199-0.008-0.298-0.011
	c-0.259-0.009-0.514-0.015-0.766-0.019c-0.125-0.002-0.248-0.002-0.372-0.003c-0.106-0.001-0.214-0.003-0.319-0.003
	c-0.046,0-0.089,0.002-0.135,0.002c-0.508,0.001-1.002,0.009-1.484,0.022c-0.084,0.002-0.165,0.005-0.248,0.007
	c-0.475,0.014-0.941,0.031-1.394,0.048c-4.114,0.157-7.089,0.272-12.624-2.312c-5.535-2.584-7.359-4.936-9.882-8.192
	c-0.31-0.4-0.633-0.814-0.964-1.232c-0.07-0.088-0.136-0.173-0.207-0.262c-0.34-0.427-0.698-0.862-1.073-1.303
	c-0.037-0.043-0.069-0.086-0.107-0.129L159.754,118.017z M38.581,447.106l20.101-0.082l12.849,15.458L38.581,447.106z
	 M177.117,305.691c-9.439,20.226-29.124,33.905-51.373,35.697l-18.455,1.487l-10.714-15.099
	c-12.916-18.204-15.076-42.078-5.637-62.304l53.893-115.476c0.182,0.21,0.369,0.421,0.56,0.633c0.063,0.069,0.127,0.138,0.191,0.208
	c0.156,0.17,0.315,0.341,0.478,0.512c0.079,0.083,0.159,0.166,0.239,0.248c0.178,0.184,0.362,0.368,0.548,0.552
	c0.06,0.059,0.116,0.116,0.177,0.176c0.242,0.236,0.495,0.473,0.754,0.71c0.076,0.07,0.156,0.139,0.233,0.209
	c0.199,0.179,0.403,0.358,0.613,0.536c0.093,0.079,0.186,0.159,0.281,0.237c0.242,0.202,0.492,0.405,0.749,0.608
	c0.056,0.043,0.108,0.088,0.165,0.131c0.309,0.241,0.632,0.482,0.964,0.722c0.096,0.07,0.196,0.138,0.294,0.208
	c0.255,0.181,0.515,0.361,0.783,0.54c0.113,0.076,0.225,0.152,0.34,0.227c0.331,0.218,0.673,0.435,1.026,0.651
	c0.042,0.026,0.083,0.053,0.125,0.079c0.393,0.239,0.804,0.477,1.225,0.714c0.123,0.069,0.25,0.138,0.376,0.207
	c0.322,0.178,0.652,0.354,0.992,0.529c0.136,0.071,0.273,0.142,0.412,0.212c0.466,0.235,0.941,0.471,1.439,0.703
	c8.857,4.134,14.818,3.905,19.611,3.722c4.115-0.157,7.09-0.272,12.623,2.311c5.535,2.584,7.358,4.936,9.882,8.192
	c2.937,3.79,6.592,8.507,15.45,12.641c0.733,0.342,1.44,0.644,2.134,0.929c0.179,0.074,0.356,0.144,0.531,0.214
	c0.646,0.256,1.282,0.495,1.896,0.705c0.034,0.011,0.07,0.026,0.103,0.037c0.645,0.219,1.269,0.407,1.881,0.581
	c0.159,0.045,0.316,0.088,0.473,0.13c0.552,0.148,1.094,0.284,1.619,0.4c0.051,0.011,0.103,0.025,0.154,0.036
	c0.572,0.123,1.125,0.223,1.667,0.312c0.136,0.022,0.272,0.042,0.406,0.064c0.484,0.074,0.959,0.136,1.421,0.186
	c0.051,0.005,0.105,0.013,0.157,0.018c0.514,0.053,1.011,0.09,1.499,0.119c0.111,0.007,0.22,0.012,0.329,0.017
	c0.439,0.022,0.87,0.037,1.29,0.045c0.03,0,0.063,0.003,0.092,0.003L177.117,305.691z M334.883,305.691l-54.016-115.743
	c0.038-0.04,0.072-0.081,0.11-0.121c0.188-0.199,0.363-0.395,0.54-0.592c0.157-0.174,0.318-0.347,0.468-0.519
	c0.172-0.197,0.331-0.39,0.495-0.584c0.138-0.165,0.283-0.332,0.416-0.495c0.166-0.202,0.32-0.398,0.478-0.596
	c0.117-0.147,0.239-0.297,0.354-0.441c0.261-0.331,0.512-0.655,0.754-0.969c2.409-3.108,4.149-5.353,9.423-7.813
	c5.274-2.461,8.11-2.353,12.041-2.203c0.581,0.022,1.179,0.045,1.798,0.061c4.336,0.106,9.705-0.163,17.228-3.673
	c8.595-4.012,12.14-8.586,14.988-12.262c2.408-3.107,4.146-5.351,9.418-7.811c5.274-2.461,8.112-2.353,12.041-2.203
	c0.405,0.015,0.825,0.031,1.256,0.044c0.071,0.002,0.145,0.003,0.216,0.005c0.362,0.01,0.728,0.019,1.109,0.023
	c0.14,0.001,0.29-0.001,0.433-0.001c0.321,0.001,0.641,0.001,0.976-0.005c0.178-0.004,0.365-0.013,0.546-0.019
	c0.314-0.01,0.627-0.021,0.953-0.04c0.046-0.003,0.09-0.003,0.136-0.006l54.017,115.744c9.439,20.226,7.279,44.1-5.637,62.303
	l-10.714,15.1l-18.455-1.487C364.008,339.596,344.324,325.917,334.883,305.691z M440.47,462.483l12.849-15.458l20.1,0.082
	L440.47,462.483z"/>
<g>
	
		<rect x="364.134" y="215.464" transform="matrix(-0.4229 -0.9062 0.9062 -0.4229 328.1338 652.0828)" style="fill:#720017;" width="15.15" height="12.181"/>
	
		<rect x="329.652" y="182.374" transform="matrix(-0.4229 -0.9062 0.9062 -0.4229 309.0546 573.753)" style="fill:#720017;" width="15.15" height="12.181"/>
</g>
<rect x="318.449" y="225.861" transform="matrix(-0.4229 -0.9062 0.9062 -0.4229 253.7076 625.478)" style="fill:#C60024;" width="15.15" height="12.181"/>
<rect x="353.093" y="278.13" transform="matrix(-0.4229 -0.9062 0.9062 -0.4229 255.636 731.245)" style="fill:#720017;" width="15.15" height="12.181"/>
<rect x="388.637" y="286.267" transform="matrix(-0.4229 -0.9062 0.9062 -0.4229 298.8373 775.0329)" style="fill:#C60024;" width="15.15" height="12.181"/>
</svg>