<?xml version="1.0" encoding="iso-8859-1"?>
<!-- Uploaded to: SVG Repo, www.svgrepo.com, Generator: SVG Repo Mixer Tools -->
<svg fill="#000000" version="1.1" id="Layer_1" xmlns="http://www.w3.org/2000/svg" xmlns:xlink="http://www.w3.org/1999/xlink" 
	 viewBox="0 0 496 496" xml:space="preserve">
<g>
	<g>
		<g>
			<path d="M480,480v-32h-16v-32h-18.088l-28.528-92.728C421.472,317.896,424,311.264,424,304c0-7.64-2.8-14.568-7.28-20.072
				l32.144-208.944L267.032,0.592L265.568,0h-35.144L47.136,74.984L79.28,283.928C74.8,289.432,72,296.36,72,304
				c0,7.264,2.528,13.896,6.624,19.272L50.088,416H32v32H16v32H0v16h208v-16h-16v-32h-16v-32h-18.088l-28.528-92.728
				C133.472,317.896,136,311.264,136,304c0-7.808-2.92-14.88-7.584-20.44L143.336,112h45.352L248,171.312L307.312,112h45.352
				l14.92,171.56C362.92,289.12,360,296.192,360,304c0,7.264,2.528,13.896,6.624,19.272L338.088,416H320v32h-16v32h-16v16h208v-16
				H480z M176,480H32v-16h144V480z M160,432v16H48v-16H160z M141.168,416H66.832l25.336-82.328C95.832,335.144,99.816,336,104,336
				s8.168-0.856,11.832-2.328L141.168,416z M88,304c0-8.824,7.176-16,16-16c8.816,0,16,7.176,16,16c0,8.824-7.184,16-16,16
				C95.176,320,88,312.824,88,304z M306.064,90.624L248,148.688l-58.064-58.064C186.112,86.8,184,81.704,184,76.28
				C184,65.104,193.104,56,204.28,56c5.424,0,10.512,2.112,14.344,5.936L248,91.312l29.376-29.376
				C281.2,58.112,286.296,56,291.72,56C302.896,56,312,65.104,312,76.28C312,81.704,309.888,86.792,306.064,90.624z M367.336,96
				h-45.192C325.928,90.176,328,83.4,328,76.28C328,56.272,311.728,40,291.72,40c-9.696,0-18.8,3.776-25.656,10.624L248,68.688
				l-18.064-18.064C223.088,43.776,213.976,40,204.28,40C184.272,40,168,56.272,168,76.28c0,7.112,2.072,13.896,5.856,19.72h-45.192
				l-15.432,177.52c-2.944-0.896-6-1.52-9.232-1.52c-3.552,0-6.904,0.72-10.096,1.784L64.864,85.016L233.568,16h28.856
				l168.704,69.016l-29.04,188.768C398.904,272.72,395.544,272,392,272c-3.232,0-6.288,0.624-9.232,1.52L367.336,96z M408,304
				c0,8.824-7.184,16-16,16c-8.824,0-16-7.176-16-16c0-8.824,7.176-16,16-16C400.816,288,408,295.176,408,304z M380.168,333.672
				C383.832,335.144,387.816,336,392,336c4.184,0,8.168-0.856,11.832-2.328L429.168,416h-74.336L380.168,333.672z M336,432h112v16
				H336V432z M464,480H320v-16h144V480z"/>
			<rect x="168.002" y="127.997" transform="matrix(-0.6 -0.8 0.8 -0.6 163.1986 377.593)" width="15.992" height="40"/>
			<rect x="299.998" y="140.007" transform="matrix(0.8 0.6 -0.6 0.8 152.8014 -162.3979)" width="40" height="15.992"/>
		</g>
	</g>
</g>
</svg>