<?xml version="1.0" encoding="iso-8859-1"?>
<!-- Uploaded to: SVG Repo, www.svgrepo.com, Generator: SVG Repo Mixer Tools -->
<svg version="1.1" id="Layer_1" xmlns="http://www.w3.org/2000/svg" xmlns:xlink="http://www.w3.org/1999/xlink" 
	 viewBox="0 0 512 512" xml:space="preserve">
<g>
	<polygon style="fill:#E1E3FA;" points="391.066,477.91 459.036,477.91 437.443,282.821 412.531,282.821 	"/>
	<polygon style="fill:#E1E3FA;" points="52.956,477.91 120.927,477.91 99.334,282.821 74.422,282.821 	"/>
</g>
<g>
	<polygon style="fill:#C5C8F5;" points="120.927,477.91 99.334,282.821 86.942,282.821 99.334,477.91 	"/>
	<polygon style="fill:#C5C8F5;" points="390.982,477.91 412.577,282.821 424.967,282.821 412.577,477.91 	"/>
</g>
<path style="fill:#E1E3FA;" d="M243.869,57.378c-1.98-1.791-3.87-3.577-5.361-5.131c-10.78-11.233-14.438-16.888-14.438-16.888
	C138.998,50.413,74.384,124.715,74.384,214.107v39.803v0.733l24.943-0.006C250.232,151.629,255.936,67.68,255.936,67.68
	S249.531,62.501,243.869,57.378z"/>
<path style="fill:#FED322;" d="M255.955,405.18L255.955,405.18c-11.992,0-21.714-9.721-21.714-21.714v-10.55h43.427v10.55
	C277.668,395.458,267.947,405.18,255.955,405.18z"/>
<g>
	<rect x="74.418" y="254.634" style="fill:#6F75E3;" width="24.91" height="28.183"/>
	<rect x="412.532" y="254.634" style="fill:#6F75E3;" width="24.91" height="28.183"/>
</g>
<path style="fill:#E1E3FA;" d="M437.487,254.644v-40.537c0-89.393-64.614-163.694-149.686-178.748c0,0-3.657,5.655-14.438,16.888
	c-5.758,6-17.428,15.434-17.428,15.434s5.704,83.95,156.609,186.958L437.487,254.644z"/>
<g>
	<path style="fill:#C5C8F5;" d="M243.869,57.378c-5.599,24.61-33.52,103.412-169.485,196.532v0.733l24.943-0.006
		C250.232,151.629,255.936,67.68,255.936,67.68S249.531,62.501,243.869,57.378z"/>
	<path style="fill:#C5C8F5;" d="M268.002,57.378c5.599,24.61,33.52,103.412,169.485,196.532v0.733l-24.943-0.006
		C261.64,151.629,255.936,67.68,255.936,67.68S262.341,62.501,268.002,57.378z"/>
</g>
<path style="fill:#C60024;" d="M290.304,25.964c0-10.136-7.978-18.352-18.113-18.352c-7.058,0-11.615,3.683-16.255,8.145
	c-5.06-4.757-9.196-8.145-16.255-8.145c-10.136,0-18.074,8.217-18.074,18.352c0,4.797,1.392,7.506,2.519,9.788
	c4.65,9.42,31.811,31.928,31.811,31.928s27.378-22.572,31.811-31.928C288.83,33.466,290.304,30.551,290.304,25.964z"/>
<path style="fill:#957755;" d="M255.955,405.18L255.955,405.18c-11.992,0-21.714-9.721-21.714-21.714v-10.55h43.427v10.55
	C277.668,395.458,267.947,405.18,255.955,405.18z"/>
<g>
	<polyline style="fill:#FFFFFF;" points="222.398,505.707 255.939,482.875 289.48,505.707 	"/>
</g>
<path d="M445.053,262.257h0.046v-48.149c0-44.712-15.89-88.1-44.744-122.171c-26.627-31.442-62.835-53.36-102.695-62.352
	c0.152-1.126,0.256-2.321,0.256-3.621C297.915,11.647,286.376,0,272.19,0c-6.889,0-12.043,2.509-16.273,5.692
	C251.57,2.395,246.579,0,239.68,0c-14.163,0-25.686,11.647-25.686,25.964c0,1.309,0.082,2.509,0.22,3.62
	c-39.862,8.991-76.07,30.91-102.698,62.353c-28.854,34.07-44.744,77.459-44.744,122.171v48.149h0.039v20.149L44.462,485.522h22.349
	v19.361h15.223v-19.361h47.394l-22.484-203.123v-23.774c99.322-68.577,135.712-128.78,148.992-162.344
	c13.28,33.564,49.667,93.765,148.986,162.34v23.785l-22.349,203.116h47.305v19.361H445.1v-19.361h22.438l-22.484-203.123
	L445.053,262.257L445.053,262.257z M112.428,470.299H61.451l19.791-179.867h11.275L112.428,470.299z M82.034,275.209v-12.956
	l9.688-0.002v12.958H82.034z M226.913,119.907c-18.05,29.699-55.227,75.764-129.943,127.119H81.995v-32.919
	c0-82.805,57.874-153.603,138.348-170.279c3.114,4.096,7.675,8.853,12.377,13.378c0.101,0.107,0.193,0.204,0.295,0.312
	c4.081,4.252,10.734,9.945,14.751,13.296C246.357,78.063,241.691,95.592,226.913,119.907z M243.341,46.284
	c-9.443-9.911-12.864-15.035-12.881-15.058l-0.255-0.394c-0.599-1.35-0.988-2.686-0.988-4.868c0-6.023,4.595-10.741,10.463-10.741
	c3.913,0,6.19,1.518,11.042,6.079l5.272,4.955l5.216-5.014c4.242-4.079,6.967-6.02,10.98-6.02c5.889,0,10.503,4.718,10.503,10.741
	c0,2.099-0.479,3.564-1.12,5.014l-0.145,0.219c-0.035,0.053-3.562,5.343-13.379,15.591c-3.752,3.574-7.95,7.362-12.101,10.929
	C251.826,54.155,247.361,50.131,243.341,46.284z M284.958,119.907c-14.788-24.334-19.451-41.872-20.856-49.093
	c3.887-3.241,10.233-8.672,14.338-12.873c4.971-4.734,9.856-9.784,13.12-14.107c80.458,16.687,138.318,87.478,138.318,170.272
	v32.919h-14.975C340.186,195.672,303.008,149.608,284.958,119.907z M429.83,262.253v12.956h-9.687v-12.958L429.83,262.253z
	 M450.537,470.299h-50.976l19.791-179.867h11.275L450.537,470.299z"/>
<path d="M226.63,365.305h-63.956v15.223h63.956v2.939c0,13.538,9.223,24.957,21.714,28.318v67.054l-30.229,20.578L226.681,512
	l29.258-19.917L285.195,512l8.566-12.584l-30.197-20.557v-67.076c12.49-3.361,21.714-14.78,21.714-28.317v-2.939h63.957v-15.223
	h-63.957H226.63z M270.057,383.465c0,7.776-6.325,14.102-14.102,14.102c-7.777,0-14.102-6.327-14.102-14.102v-2.939h28.204V383.465z
	"/>
</svg>